<svg width="64" height="64" viewBox="0 0 64 64" fill="none" xmlns="http://www.w3.org/2000/svg">
<path d="M58.6667 31.9999C58.6667 17.2959 46.7041 5.33325 32.0001 5.33325C17.2961 5.33325 5.33341 17.2959 5.33341 31.9999C5.33341 46.7039 17.2961 58.6666 32.0001 58.6666C46.7041 58.6666 58.6667 46.7039 58.6667 31.9999ZM10.6667 31.9999C10.6667 20.2373 20.2374 10.6666 32.0001 10.6666C43.7627 10.6666 53.3334 20.2373 53.3334 31.9999C53.3334 43.7626 43.7627 53.3333 32.0001 53.3333C20.2374 53.3333 10.6667 43.7626 10.6667 31.9999Z" fill="#001A3C"/>
<path d="M43.4481 24.7814L32.0001 36.2294L20.5521 24.7814L16.7814 28.552L32.0001 43.7707L47.2188 28.552L43.4481 24.7814Z" fill="#001A3C"/>
</svg>
