<svg width="163" height="163" viewBox="0 0 163 163" fill="none" xmlns="http://www.w3.org/2000/svg">
<path d="M149.417 81.4999C149.417 44.0507 118.949 13.5833 81.5001 13.5833C44.0508 13.5833 13.5834 44.0507 13.5834 81.4999C13.5834 118.949 44.0508 149.417 81.5001 149.417C118.949 149.417 149.417 118.949 149.417 81.4999ZM27.1667 81.4999C27.1667 51.5419 51.542 27.1666 81.5001 27.1666C111.458 27.1666 135.833 51.5419 135.833 81.4999C135.833 111.458 111.458 135.833 81.5001 135.833C51.542 135.833 27.1667 111.458 27.1667 81.4999Z" fill="#A3E1E1"/>
<path d="M110.657 63.115L81.5002 92.2716L52.3436 63.115L42.7401 72.7184L81.5002 111.478L120.26 72.7184L110.657 63.115Z" fill="#A3E1E1"/>
</svg>
