<svg width="163" height="41" viewBox="0 0 163 41" fill="none" xmlns="http://www.w3.org/2000/svg">
<path d="M8.792 24.452H16.496V30.5H0.8V5.012H8.792V24.452ZM23.0429 8.576C21.6509 8.576 20.5349 8.204 19.6949 7.46C18.8549 6.716 18.4349 5.78 18.4349 4.652C18.4349 3.5 18.8549 2.552 19.6949 1.808C20.5349 1.04 21.6509 0.655998 23.0429 0.655998C24.4109 0.655998 25.5149 1.04 26.3549 1.808C27.1949 2.552 27.6149 3.5 27.6149 4.652C27.6149 5.78 27.1949 6.716 26.3549 7.46C25.5149 8.204 24.4109 8.576 23.0429 8.576ZM27.0029 10.196V30.5H19.0109V10.196H27.0029ZM29.5325 20.348C29.5325 18.236 29.9645 16.4 30.8285 14.84C31.7165 13.256 32.9405 12.044 34.5005 11.204C36.0845 10.364 37.8845 9.944 39.9005 9.944C42.5405 9.944 44.7605 10.688 46.5605 12.176C48.3845 13.664 49.5365 15.728 50.0165 18.368H41.5565C41.2445 17.312 40.6325 16.784 39.7205 16.784C39.0725 16.784 38.5565 17.084 38.1725 17.684C37.8125 18.284 37.6325 19.172 37.6325 20.348C37.6325 21.524 37.8125 22.412 38.1725 23.012C38.5565 23.612 39.0725 23.912 39.7205 23.912C40.6325 23.912 41.2445 23.384 41.5565 22.328H50.0165C49.5365 24.968 48.3845 27.032 46.5605 28.52C44.7605 30.008 42.5405 30.752 39.9005 30.752C37.8845 30.752 36.0845 30.332 34.5005 29.492C32.9405 28.652 31.7165 27.452 30.8285 25.892C29.9645 24.308 29.5325 22.46 29.5325 20.348ZM66.77 10.052C69.098 10.052 70.91 10.832 72.206 12.392C73.526 13.952 74.186 16.064 74.186 18.728V30.5H66.23V19.736C66.23 18.776 65.966 18.02 65.438 17.468C64.934 16.892 64.25 16.604 63.386 16.604C62.498 16.604 61.802 16.892 61.298 17.468C60.794 18.02 60.542 18.776 60.542 19.736V30.5H52.55V3.86H60.542V13.292C61.166 12.332 61.994 11.552 63.026 10.952C64.082 10.352 65.33 10.052 66.77 10.052Z" fill="#022859"/>
<path d="M93.0596 30.5L85.6436 19.448V30.5H77.6516V5.012H85.6436V15.74L92.9516 5.012H101.988L93.2036 17.216L102.564 30.5H93.0596ZM108.859 8.576C107.467 8.576 106.351 8.204 105.511 7.46C104.671 6.716 104.251 5.78 104.251 4.652C104.251 3.5 104.671 2.552 105.511 1.808C106.351 1.04 107.467 0.655998 108.859 0.655998C110.227 0.655998 111.331 1.04 112.171 1.808C113.011 2.552 113.431 3.5 113.431 4.652C113.431 5.78 113.011 6.716 112.171 7.46C111.331 8.204 110.227 8.576 108.859 8.576ZM112.819 10.196V30.5H104.827V10.196H112.819ZM130.649 10.052C132.977 10.052 134.789 10.832 136.085 12.392C137.405 13.952 138.065 16.064 138.065 18.728V30.5H130.109V19.736C130.109 18.776 129.845 18.02 129.317 17.468C128.813 16.892 128.129 16.604 127.265 16.604C126.377 16.604 125.681 16.892 125.177 17.468C124.673 18.02 124.421 18.776 124.421 19.736V30.5H116.429V10.196H124.421V13.292C125.045 12.332 125.873 11.552 126.905 10.952C127.961 10.352 129.209 10.052 130.649 10.052ZM148.838 9.944C150.158 9.944 151.298 10.22 152.258 10.772C153.218 11.3 153.95 12.032 154.454 12.968V10.196H162.41V30.14C162.41 32.036 162.062 33.764 161.366 35.324C160.67 36.884 159.542 38.132 157.982 39.068C156.446 40.004 154.466 40.472 152.042 40.472C148.778 40.472 146.186 39.704 144.266 38.168C142.37 36.656 141.29 34.592 141.026 31.976H148.874C149.09 33.032 149.954 33.56 151.466 33.56C152.402 33.56 153.134 33.32 153.662 32.84C154.19 32.36 154.454 31.46 154.454 30.14V27.728C153.95 28.664 153.218 29.408 152.258 29.96C151.298 30.488 150.158 30.752 148.838 30.752C147.254 30.752 145.826 30.344 144.554 29.528C143.282 28.688 142.274 27.488 141.53 25.928C140.81 24.344 140.45 22.484 140.45 20.348C140.45 18.212 140.81 16.364 141.53 14.804C142.274 13.22 143.282 12.02 144.554 11.204C145.826 10.364 147.254 9.944 148.838 9.944ZM154.454 20.348C154.454 19.268 154.178 18.428 153.626 17.828C153.074 17.228 152.366 16.928 151.502 16.928C150.638 16.928 149.93 17.228 149.378 17.828C148.826 18.428 148.55 19.268 148.55 20.348C148.55 21.428 148.826 22.268 149.378 22.868C149.93 23.468 150.638 23.768 151.502 23.768C152.366 23.768 153.074 23.468 153.626 22.868C154.178 22.268 154.454 21.428 154.454 20.348Z" fill="#264F73"/>
</svg>
