<svg width="288" height="72" viewBox="0 0 288 72" fill="none" xmlns="http://www.w3.org/2000/svg">
<path d="M14.408 43.248H28.104V54H0.2V8.688H14.408V43.248ZM39.743 15.024C37.2683 15.024 35.2843 14.3627 33.791 13.04C32.2977 11.7173 31.551 10.0533 31.551 8.048C31.551 6 32.2977 4.31466 33.791 2.992C35.2843 1.62666 37.2683 0.943996 39.743 0.943996C42.175 0.943996 44.1377 1.62666 45.631 2.992C47.1243 4.31466 47.871 6 47.871 8.048C47.871 10.0533 47.1243 11.7173 45.631 13.04C44.1377 14.3627 42.175 15.024 39.743 15.024ZM46.783 17.904V54H32.575V17.904H46.783ZM51.28 35.952C51.28 32.1973 52.048 28.9333 53.584 26.16C55.1627 23.344 57.3387 21.1893 60.112 19.696C62.928 18.2027 66.128 17.456 69.712 17.456C74.4053 17.456 78.352 18.7787 81.552 21.424C84.7947 24.0693 86.8427 27.7387 87.696 32.432H72.656C72.1013 30.5547 71.0133 29.616 69.392 29.616C68.24 29.616 67.3227 30.1493 66.64 31.216C66 32.2827 65.68 33.8613 65.68 35.952C65.68 38.0427 66 39.6213 66.64 40.688C67.3227 41.7547 68.24 42.288 69.392 42.288C71.0133 42.288 72.1013 41.3493 72.656 39.472H87.696C86.8427 44.1653 84.7947 47.8347 81.552 50.48C78.352 53.1253 74.4053 54.448 69.712 54.448C66.128 54.448 62.928 53.7013 60.112 52.208C57.3387 50.7147 55.1627 48.5813 53.584 45.808C52.048 42.992 51.28 39.7067 51.28 35.952ZM117.48 17.648C121.619 17.648 124.84 19.0347 127.144 21.808C129.491 24.5813 130.664 28.336 130.664 33.072V54H116.52V34.864C116.52 33.1573 116.051 31.8133 115.112 30.832C114.216 29.808 113 29.296 111.464 29.296C109.885 29.296 108.648 29.808 107.752 30.832C106.856 31.8133 106.408 33.1573 106.408 34.864V54H92.2V6.64H106.408V23.408C107.517 21.7013 108.989 20.3147 110.824 19.248C112.701 18.1813 114.92 17.648 117.48 17.648Z" fill="#022859"/>
<path d="M164.217 54L151.033 34.352V54H136.825V8.688H151.033V27.76L164.025 8.688H180.089L164.473 30.384L181.113 54H164.217ZM192.306 15.024C189.831 15.024 187.847 14.3627 186.354 13.04C184.86 11.7173 184.114 10.0533 184.114 8.048C184.114 6 184.86 4.31466 186.354 2.992C187.847 1.62666 189.831 0.943996 192.306 0.943996C194.738 0.943996 196.7 1.62666 198.194 2.992C199.687 4.31466 200.434 6 200.434 8.048C200.434 10.0533 199.687 11.7173 198.194 13.04C196.7 14.3627 194.738 15.024 192.306 15.024ZM199.346 17.904V54H185.138V17.904H199.346ZM231.043 17.648C235.181 17.648 238.403 19.0347 240.707 21.808C243.053 24.5813 244.227 28.336 244.227 33.072V54H230.083V34.864C230.083 33.1573 229.613 31.8133 228.675 30.832C227.779 29.808 226.563 29.296 225.027 29.296C223.448 29.296 222.211 29.808 221.315 30.832C220.419 31.8133 219.971 33.1573 219.971 34.864V54H205.763V17.904H219.971V23.408C221.08 21.7013 222.552 20.3147 224.387 19.248C226.264 18.1813 228.483 17.648 231.043 17.648ZM263.38 17.456C265.726 17.456 267.753 17.9467 269.46 18.928C271.166 19.8667 272.468 21.168 273.364 22.832V17.904H287.508V53.36C287.508 56.7307 286.889 59.8027 285.652 62.576C284.414 65.3493 282.409 67.568 279.636 69.232C276.905 70.896 273.385 71.728 269.076 71.728C263.273 71.728 258.665 70.3627 255.252 67.632C251.881 64.944 249.961 61.2747 249.492 56.624H263.444C263.828 58.5013 265.364 59.44 268.052 59.44C269.716 59.44 271.017 59.0133 271.956 58.16C272.894 57.3067 273.364 55.7067 273.364 53.36V49.072C272.468 50.736 271.166 52.0587 269.46 53.04C267.753 53.9787 265.726 54.448 263.38 54.448C260.564 54.448 258.025 53.7227 255.764 52.272C253.502 50.7787 251.71 48.6453 250.388 45.872C249.108 43.056 248.468 39.7493 248.468 35.952C248.468 32.1547 249.108 28.8693 250.388 26.096C251.71 23.28 253.502 21.1467 255.764 19.696C258.025 18.2027 260.564 17.456 263.38 17.456ZM273.364 35.952C273.364 34.032 272.873 32.5387 271.892 31.472C270.91 30.4053 269.652 29.872 268.116 29.872C266.58 29.872 265.321 30.4053 264.34 31.472C263.358 32.5387 262.868 34.032 262.868 35.952C262.868 37.872 263.358 39.3653 264.34 40.432C265.321 41.4987 266.58 42.032 268.116 42.032C269.652 42.032 270.91 41.4987 271.892 40.432C272.873 39.3653 273.364 37.872 273.364 35.952Z" fill="#264F73"/>
</svg>
